<?xml version="1.0" standalone="no"?>
<!DOCTYPE svg PUBLIC "-//W3C//DTD SVG 20010904//EN"
 "http://www.w3.org/TR/2001/REC-SVG-20010904/DTD/svg10.dtd">
<svg version="1.0" xmlns="http://www.w3.org/2000/svg"
 width="300.000000pt" height="533.000000pt" viewBox="0 0 300.000000 533.000000"
 preserveAspectRatio="xMidYMid meet">
<metadata>
Created by potrace 1.10, written by Peter Selinger 2001-2011
</metadata>
<g transform="translate(0.000000,533.000000) scale(0.100000,-0.100000)"
fill="#000000" stroke="none">
<path d="M1460 4215 c0 -77 2 -85 19 -85 23 0 31 19 31 76 0 38 3 44 25 50 16
4 25 13 25 25 0 22 -20 25 -39 7 -11 -10 -14 -10 -18 0 -3 6 -13 12 -24 12
-17 0 -19 -8 -19 -85z"/>
<path d="M1299 4283 c-25 -6 -53 -66 -45 -94 13 -48 34 -64 85 -64 54 0 88 20
70 41 -9 11 -15 10 -35 -3 -20 -13 -30 -14 -49 -5 -47 22 -20 42 58 42 32 0
37 3 37 24 0 46 -61 75 -121 59z m65 -29 c27 -10 18 -31 -15 -38 -61 -12 -75
-3 -43 28 16 17 33 20 58 10z"/>
<path d="M1875 4200 c-39 -77 -43 -105 -19 -138 18 -26 64 -52 92 -52 32 0 71
39 103 102 28 55 29 62 15 76 -19 19 -15 22 -58 -58 -32 -60 -38 -65 -68 -65
-22 0 -37 7 -47 21 -12 19 -10 28 22 89 19 37 35 69 35 71 0 2 -9 8 -20 14
-18 9 -23 3 -55 -60z"/>
<path d="M1106 4226 c-17 -13 -37 -21 -47 -19 -9 3 -19 1 -22 -4 -7 -11 68
-206 80 -210 4 -2 14 1 21 6 11 7 11 14 -1 44 l-15 35 34 -1 c78 -2 106 90 45
145 -38 34 -57 35 -95 4z m66 -33 c24 -22 23 -58 -3 -77 -22 -15 -48 -11 -61
8 -14 20 -8 65 10 75 24 14 33 13 54 -6z"/>
<path d="M1660 4137 c0 -31 24 -41 45 -20 21 21 14 37 -18 41 -23 3 -27 0 -27
-21z"/>
<path d="M915 4138 c-40 -23 -56 -51 -51 -90 6 -52 30 -73 84 -73 84 0 122 87
63 146 -31 30 -63 36 -96 17z m63 -44 c24 -17 29 -53 10 -72 -19 -19 -55 -14
-72 10 -20 28 -20 43 0 62 19 20 34 20 62 0z"/>
<path d="M2081 4048 c-48 -62 -61 -85 -54 -97 5 -8 14 -16 19 -17 5 -1 37 36
72 83 51 68 61 87 51 99 -6 8 -14 14 -18 14 -3 0 -35 -37 -70 -82z"/>
<path d="M733 4083 c-22 -8 -14 -26 30 -74 23 -25 57 -62 75 -83 31 -36 35
-37 50 -23 18 18 23 10 -69 110 -24 27 -48 55 -52 63 -8 15 -14 16 -34 7z"/>
<path d="M2177 3972 c-76 -36 -137 -70 -137 -74 0 -26 45 -13 165 46 74 36
135 70 135 75 0 25 -39 13 -163 -47z"/>
<path d="M678 3927 c-52 -48 -44 -112 18 -142 31 -15 37 -15 68 0 31 15 46 34
60 78 4 12 0 17 -14 17 -11 0 -20 -6 -20 -13 0 -20 -35 -57 -53 -57 -27 0 -27
15 1 46 53 58 56 63 42 79 -19 23 -73 19 -102 -8z m65 -13 c9 -9 -43 -75 -54
-68 -14 8 -10 36 8 56 16 18 35 23 46 12z"/>
<path d="M2314 3937 c-6 -7 -32 -27 -58 -44 -76 -53 -85 -106 -26 -164 40 -40
73 -37 151 12 35 23 65 43 67 45 2 1 -2 12 -8 24 -11 21 -12 21 -59 -14 -67
-49 -94 -58 -120 -40 -13 10 -21 26 -21 45 0 25 9 35 58 66 31 20 59 37 60 39
2 1 1 12 -3 23 -7 23 -24 27 -41 8z"/>
<path d="M586 3814 c-10 -25 -8 -30 29 -74 19 -23 35 -45 35 -49 0 -4 -27 -3
-61 2 -49 8 -63 7 -70 -4 -5 -8 -9 -17 -9 -20 0 -10 57 -19 121 -19 88 0 91
17 19 107 -43 54 -60 69 -64 57z"/>
<path d="M2467 3716 c-3 -8 -17 -33 -31 -55 l-26 -40 -42 13 c-24 7 -53 16
-65 20 -17 5 -23 3 -23 -8 0 -25 30 -46 65 -46 45 0 49 -10 20 -53 -27 -39
-30 -54 -16 -76 7 -11 18 1 46 46 l38 59 55 -18 c66 -21 72 -20 61 9 -6 16
-19 24 -49 29 -46 7 -48 14 -19 55 14 20 19 38 15 54 -7 28 -21 33 -29 11z"/>
<path d="M491 3589 c-45 -48 -32 -118 25 -139 39 -15 61 -12 90 13 21 19 27
33 28 68 1 56 -26 63 -34 9 -8 -44 -17 -60 -36 -60 -16 0 -13 21 12 93 l13 37
-39 0 c-27 0 -45 -7 -59 -21z m48 -62 c-12 -44 -32 -45 -37 -2 -3 19 2 33 14
42 26 19 35 3 23 -40z"/>
<path d="M430 3407 c-34 -17 -52 -58 -58 -132 l-4 -62 38 -6 c22 -4 72 -7 112
-7 l72 0 0 71 c0 79 -17 120 -57 138 -32 14 -72 14 -103 -2z m101 -57 c25 -24
30 -37 27 -67 -2 -21 -6 -37 -10 -35 -5 1 -37 2 -73 2 l-65 0 0 40 c0 30 7 47
25 65 32 33 60 31 96 -5z"/>
<path d="M2370 3311 c0 -72 10 -101 47 -135 33 -31 81 -34 123 -9 39 23 50 52
50 133 l0 70 -110 0 -110 0 0 -59z m185 -1 c8 -27 -3 -76 -22 -95 -15 -16 -70
-20 -89 -7 -18 12 -34 49 -34 81 0 29 2 30 53 34 28 2 60 4 69 5 9 1 20 -7 23
-18z"/>
<path d="M2394 3115 c-42 -29 -60 -130 -24 -130 9 0 14 8 13 20 -4 30 17 75
35 75 15 0 15 -12 -4 -97 -6 -32 -5 -33 25 -33 44 0 81 38 81 84 0 48 -8 65
-41 81 -35 19 -59 19 -85 0z m96 -81 c0 -20 -24 -44 -45 -44 -5 0 -1 27 12 73
7 25 33 3 33 -29z"/>
<path d="M486 3058 c-72 -64 -7 -183 82 -152 58 20 74 99 31 154 -15 21 -21
22 -28 11 -6 -10 -5 -24 5 -42 18 -35 18 -53 0 -68 -11 -9 -17 0 -31 54 -10
36 -22 65 -26 65 -4 0 -19 -10 -33 -22z m41 -70 c13 -50 12 -53 -16 -38 -28
14 -29 80 -1 80 3 0 11 -19 17 -42z"/>
<path d="M2331 2947 c-6 -8 -18 -30 -26 -50 -17 -42 -9 -69 25 -87 20 -11 32
-2 74 55 11 15 18 17 26 9 13 -13 -2 -52 -24 -66 -8 -5 -6 -12 5 -23 15 -15
17 -14 33 10 24 36 32 91 16 110 -22 27 -58 18 -82 -20 -13 -19 -29 -35 -35
-35 -20 0 -15 34 8 64 27 34 9 67 -20 33z"/>
<path d="M507 2858 c-18 -13 -18 -14 2 -32 11 -10 18 -23 15 -29 -2 -7 0 -18
5 -26 7 -12 21 -8 74 17 36 18 71 32 76 32 14 0 14 6 1 31 -11 19 -11 19 -50
-1 -50 -25 -74 -25 -91 1 -12 17 -16 18 -32 7z"/>
<path d="M2250 2791 c-9 -18 -7 -23 17 -33 15 -7 30 -15 33 -18 3 -3 24 -15
47 -28 40 -21 43 -21 52 -4 8 16 0 24 -56 58 -86 50 -80 49 -93 25z"/>
<path d="M690 2792 c0 -5 -18 -18 -40 -31 -70 -39 -78 -82 -26 -139 28 -30 37
-35 47 -25 10 10 8 18 -14 41 -15 15 -27 33 -27 39 0 27 22 22 51 -11 36 -42
62 -45 84 -12 15 22 15 27 1 55 -9 16 -24 34 -33 40 -10 5 -17 11 -15 13 2 2
0 11 -3 21 -7 17 -25 24 -25 9z m40 -82 c11 -21 6 -40 -10 -40 -11 0 -50 41
-50 52 0 17 50 7 60 -12z"/>
<path d="M2139 2731 c-53 -53 -53 -90 -1 -137 95 -86 106 -93 120 -82 7 6 11
17 8 23 -2 7 6 17 19 23 13 6 31 25 40 42 15 29 15 33 -2 63 -36 62 -114 61
-143 0 -18 -39 -28 -41 -36 -7 -5 18 0 32 17 50 12 13 29 24 37 24 9 0 12 6 8
16 -3 9 -6 18 -6 20 0 14 -28 -1 -61 -35z m139 -73 c30 -30 -7 -95 -47 -80
-49 18 -38 92 14 92 12 0 26 -5 33 -12z"/>
<path d="M2432 2701 c-20 -12 -10 -46 13 -46 14 0 20 7 20 24 0 27 -13 35 -33
22z"/>
<path d="M748 2586 c-72 -39 -77 -43 -61 -58 15 -16 19 -15 59 13 45 31 69 37
61 17 -3 -7 -13 -32 -22 -56 -13 -33 -15 -45 -5 -56 10 -12 20 -10 66 15 30
17 54 26 54 20 0 -5 -9 -31 -20 -57 -19 -42 -19 -49 -6 -63 19 -18 16 -22 54
74 29 74 30 80 14 95 -15 14 -21 13 -71 -14 -34 -18 -52 -24 -49 -15 3 8 13
33 23 56 15 38 15 44 2 58 -9 8 -17 14 -19 14 -2 -1 -38 -20 -80 -43z"/>
<path d="M2076 2575 c-15 -15 -14 -19 14 -53 33 -40 38 -73 15 -92 -21 -17
-46 -5 -79 40 -24 32 -32 37 -48 29 -21 -11 -19 -16 31 -76 44 -54 87 -59 121
-15 12 15 25 27 28 28 4 0 15 4 24 8 15 7 12 16 -29 69 -25 34 -49 66 -53 70
-4 5 -15 1 -24 -8z"/>
<path d="M1005 2415 c-32 -59 -33 -59 -55 -45 -22 14 -32 -11 -13 -33 13 -13
14 -20 5 -29 -9 -9 -15 -9 -23 -1 -6 6 -18 9 -25 6 -24 -9 -15 -31 18 -42 28
-10 36 -9 60 9 15 11 34 20 43 20 8 0 15 7 15 15 0 8 -5 15 -11 15 -6 0 5 27
23 60 28 52 31 62 18 70 -23 15 -24 14 -55 -45z"/>
<path d="M1854 2431 c-39 -24 -50 -41 -34 -51 8 -5 24 0 40 12 15 11 36 18 45
16 36 -6 24 -25 -30 -48 -59 -25 -63 -30 -39 -54 43 -44 99 -43 134 1 35 45
23 105 -27 131 -31 17 -53 15 -89 -7z m96 -80 c0 -25 -24 -43 -52 -39 -30 4
-27 19 8 40 38 22 44 22 44 -1z"/>
<path d="M1094 2386 c-73 -62 8 -182 97 -145 67 27 72 122 8 154 -40 21 -74
18 -105 -9z m102 -40 c13 -53 -23 -89 -66 -66 -40 22 -18 90 30 90 23 0 31 -5
36 -24z"/>
<path d="M1744 2388 c-20 -9 -20 -12 -8 -46 18 -52 17 -70 -6 -84 -11 -7 -20
-23 -20 -35 0 -29 8 -29 37 -1 13 12 23 17 23 11 0 -6 9 -9 21 -6 22 6 22 15
-9 114 -15 51 -19 56 -38 47z"/>
<path d="M1299 2353 c-23 -6 -41 -50 -29 -72 12 -23 47 -46 83 -55 30 -7 38
-40 11 -50 -17 -7 -63 2 -80 16 -8 5 -14 2 -18 -8 -8 -21 -1 -29 45 -43 70
-22 134 26 108 82 -6 12 -33 32 -60 44 -49 22 -63 45 -34 57 19 7 73 -3 81
-15 9 -14 31 -10 38 7 11 29 -85 54 -145 37z"/>
<path d="M1524 2335 c-4 -9 -2 -21 4 -27 16 -16 47 -5 47 17 0 26 -42 34 -51
10z"/>
</g>
</svg>
