<?xml version="1.0" standalone="no"?>
<!DOCTYPE svg PUBLIC "-//W3C//DTD SVG 20010904//EN"
 "http://www.w3.org/TR/2001/REC-SVG-20010904/DTD/svg10.dtd">
<svg version="1.0" xmlns="http://www.w3.org/2000/svg"
 width="300.000000pt" height="300.000000pt" viewBox="0 0 300.000000 300.000000"
 preserveAspectRatio="xMidYMid meet">
<metadata>
Created by potrace 1.10, written by Peter Selinger 2001-2011
</metadata>
<g transform="translate(0.000000,300.000000) scale(0.100000,-0.100000)"
fill="#000000" stroke="none">
<path d="M1636 2623 c-23 -83 -36 -172 -28 -193 15 -39 47 -62 95 -67 78 -9
102 18 131 146 16 75 15 91 -8 91 -9 0 -16 -18 -21 -46 -19 -129 -50 -175
-109 -160 -59 15 -67 47 -38 163 16 61 16 73 4 78 -19 7 -20 7 -26 -12z"/>
<path d="M1221 2531 c-21 -23 -31 -28 -31 -17 0 9 -7 16 -15 16 -19 0 -19 1
10 -99 28 -94 28 -96 49 -88 12 5 12 14 -4 64 -19 63 -15 92 17 108 14 7 18
16 13 30 -7 19 -9 18 -39 -14z"/>
<path d="M1893 2433 c-50 -111 -54 -132 -23 -133 3 0 29 53 58 117 39 87 49
119 39 125 -6 4 -14 8 -17 7 -3 0 -29 -52 -57 -116z"/>
<path d="M2011 2382 c-105 -87 -137 -118 -126 -124 10 -6 50 21 137 93 166
138 163 135 144 142 -10 4 -64 -34 -155 -111z"/>
<path d="M1029 2468 c-45 -17 -69 -49 -69 -91 0 -86 101 -129 169 -71 30 25
41 54 21 54 -5 0 -20 -11 -34 -25 -24 -24 -58 -31 -90 -19 -29 11 -17 23 55
60 l71 35 -27 29 c-31 32 -61 41 -96 28z m69 -41 c9 -10 -1 -19 -44 -40 -30
-15 -57 -27 -59 -27 -12 0 -3 45 12 62 19 21 75 24 91 5z"/>
<path d="M1416 2421 c-10 -16 6 -42 23 -39 9 2 17 13 19 26 3 16 -2 22 -17 22
-11 0 -22 -4 -25 -9z"/>
<path d="M2127 2335 c-54 -62 -67 -83 -67 -110 0 -60 78 -125 132 -111 25 6
49 26 118 99 35 38 42 49 31 59 -10 11 -25 0 -75 -54 -46 -50 -70 -68 -89 -68
-39 0 -56 10 -73 41 -19 37 -9 56 65 134 47 49 52 58 39 71 -12 13 -23 5 -81
-61z"/>
<path d="M806 2325 c-14 -13 -26 -34 -26 -46 0 -16 -3 -19 -13 -11 -7 7 -18 7
-27 2 -18 -11 154 -212 176 -203 20 8 18 16 -16 48 -36 35 -38 45 -7 45 37 0
77 49 77 94 0 83 -103 128 -164 71z m109 -30 c14 -13 25 -33 25 -45 0 -27 -43
-70 -70 -70 -26 0 -70 43 -70 68 0 30 38 72 66 72 14 0 36 -11 49 -25z"/>
<path d="M2380 2124 c-14 -36 -28 -68 -31 -70 -3 -2 -39 1 -80 5 -41 5 -75 7
-77 6 -1 -1 0 -9 3 -18 5 -10 27 -17 75 -22 l69 -7 -25 -56 c-22 -50 -25 -92
-6 -92 4 0 20 33 36 74 21 55 32 73 44 70 10 -1 45 -5 79 -8 61 -6 63 -5 51
14 -11 17 -24 20 -75 20 l-63 0 25 57 c23 51 26 93 6 93 -3 0 -18 -30 -31 -66z"/>
<path d="M652 2154 c-59 -41 -63 -114 -10 -159 56 -47 134 -23 158 49 27 84
-75 161 -148 110z m92 -35 c32 -25 35 -70 6 -99 -26 -26 -51 -25 -84 1 -32 25
-35 70 -6 99 26 26 51 25 84 -1z"/>
<path d="M463 2003 c-4 -10 -1 -19 6 -21 7 -2 62 -29 123 -59 85 -41 113 -51
119 -41 13 20 11 23 -18 35 -16 6 -72 31 -126 57 -85 40 -99 44 -104 29z"/>
<path d="M524 1870 c-31 -12 -54 -49 -54 -88 0 -44 14 -68 50 -87 44 -23 78
-19 110 14 33 32 45 69 36 107 -8 31 -32 26 -28 -7 4 -35 -16 -75 -45 -88 -14
-6 -28 -10 -30 -7 -2 2 6 36 18 76 18 60 19 74 8 81 -17 11 -37 10 -65 -1z
m46 -27 c0 -5 -8 -34 -18 -66 -18 -55 -19 -57 -35 -39 -18 19 -22 59 -9 78 14
22 62 42 62 27z"/>
<path d="M2545 1805 c-5 -2 -53 -11 -106 -20 l-96 -16 13 -69 c7 -38 18 -78
23 -89 37 -68 135 -83 195 -31 43 38 51 72 36 160 -10 62 -14 70 -33 69 -12 0
-26 -2 -32 -4z m38 -85 c3 -28 2 -61 -3 -74 -12 -33 -58 -66 -91 -66 -40 0
-87 44 -95 88 -3 20 -8 44 -10 54 -4 13 10 19 73 31 123 24 119 25 126 -33z"/>
<path d="M440 1662 c0 -12 23 -29 77 -56 l76 -38 -74 -25 c-72 -24 -104 -47
-93 -65 3 -4 10 -5 17 -1 6 3 49 21 96 38 119 44 119 56 -4 118 -81 40 -95 45
-95 29z"/>
<path d="M2443 1512 c-34 -5 -73 -58 -73 -98 0 -45 16 -75 35 -68 11 5 12 11
5 24 -16 30 -12 68 10 90 36 36 43 26 35 -60 -7 -77 -6 -80 14 -80 61 0 109
60 96 118 -10 50 -66 83 -122 74z m87 -63 c16 -28 12 -48 -15 -74 -42 -43 -46
-34 -29 72 5 35 26 36 44 2z"/>
<path d="M488 1444 c-54 -29 -64 -93 -22 -143 22 -26 33 -31 69 -31 64 0 100
33 100 92 0 55 -29 105 -51 88 -12 -10 -11 -16 6 -37 26 -34 25 -56 -4 -89
l-23 -28 -12 65 c-6 36 -11 73 -11 82 0 21 -16 21 -52 1z m38 -84 c9 -54 8
-60 -7 -60 -40 0 -63 74 -33 104 25 25 30 20 40 -44z"/>
<path d="M2355 1293 c-10 -15 -20 -46 -23 -69 -4 -37 -1 -44 22 -59 34 -23 51
-15 84 40 32 54 58 57 55 6 0 -18 -8 -40 -17 -50 -16 -18 -12 -31 9 -31 14 0
45 63 45 93 0 27 -18 52 -42 60 -22 8 -62 -25 -78 -63 -8 -19 -19 -30 -29 -28
-25 5 -25 47 -1 80 19 26 20 48 1 48 -5 0 -17 -12 -26 -27z"/>
<path d="M523 1220 c-42 -22 -73 -68 -73 -109 0 -22 45 -139 59 -154 4 -4 60
16 124 44 l116 52 -37 70 c-57 108 -111 136 -189 97z m113 -38 c24 -19 69
-101 60 -110 -3 -3 -43 -22 -89 -42 l-83 -37 -17 41 c-9 23 -17 58 -17 78 0
69 92 114 146 70z"/>
<path d="M2294 1135 c-8 -20 -14 -15 84 -64 69 -35 83 -39 88 -26 8 20 14 15
-84 64 -69 35 -83 39 -88 26z"/>
<path d="M2188 1079 c-45 -36 -67 -94 -49 -128 7 -12 48 -49 93 -82 64 -47 83
-57 94 -48 12 10 11 14 -3 25 -17 13 -17 13 3 14 26 0 60 36 69 73 15 60 -49
126 -109 111 -39 -9 -76 -52 -76 -87 0 -29 0 -30 -20 -12 -11 10 -20 30 -20
45 0 29 43 80 67 80 10 0 13 6 9 16 -3 9 -6 18 -6 20 0 11 -19 1 -52 -27z
m156 -84 c12 -9 19 -27 19 -45 0 -66 -73 -94 -112 -43 -48 60 31 135 93 88z"/>
<path d="M2504 1035 c-7 -18 3 -35 21 -35 18 0 26 25 12 39 -15 15 -27 14 -33
-4z"/>
<path d="M754 902 c-28 -22 -44 -54 -44 -86 0 -35 46 -86 78 -86 26 0 26 0
-13 -40 -31 -32 -36 -43 -27 -52 10 -10 33 8 109 85 75 74 95 99 86 108 -9 9
-15 9 -26 0 -12 -9 -14 -7 -14 16 0 60 -99 96 -149 55z m104 -32 c12 -12 22
-32 22 -46 0 -28 -41 -74 -65 -74 -48 0 -84 54 -63 93 26 49 70 60 106 27z"/>
<path d="M2113 883 c-9 -3 3 -24 32 -60 25 -30 45 -61 45 -68 0 -21 -40 -65
-60 -65 -10 0 -41 25 -68 55 -39 45 -51 53 -60 42 -9 -11 -1 -26 39 -70 42
-47 56 -57 83 -57 35 0 86 40 86 66 0 8 6 11 15 8 39 -15 30 13 -27 82 -35 40
-65 74 -68 73 -3 0 -11 -3 -17 -6z"/>
<path d="M965 770 c-3 -6 2 -13 12 -16 57 -19 72 -29 83 -54 20 -49 3 -51 -65
-9 -35 23 -68 38 -74 35 -16 -10 -23 -61 -12 -89 15 -38 68 -69 106 -62 67 12
107 99 69 153 -28 40 -104 67 -119 42z m36 -112 l51 -31 -25 -14 c-34 -17 -74
-2 -87 33 -9 23 -6 44 5 44 3 0 28 -14 56 -32z"/>
<path d="M1868 714 c-37 -19 -55 -52 -33 -60 10 -4 23 4 36 20 23 29 78 36 98
13 8 -11 -4 -21 -59 -47 -39 -19 -70 -36 -70 -38 0 -17 28 -46 55 -58 83 -34
162 54 121 134 -9 17 -25 36 -35 42 -28 14 -81 12 -113 -6z m121 -108 c-14
-29 -46 -42 -84 -32 -37 9 -31 19 28 48 58 29 74 24 56 -16z"/>
<path d="M1138 566 c-38 -63 -68 -117 -68 -120 0 -3 8 -6 18 -6 12 0 35 32 72
97 l55 97 12 -107 c18 -162 26 -164 103 -32 l55 94 7 -42 c3 -23 9 -72 13
-109 5 -47 11 -68 22 -72 9 -4 17 -5 18 -4 4 4 -23 250 -29 265 -12 30 -38 7
-88 -77 -29 -49 -56 -90 -59 -90 -4 0 -10 47 -14 105 -4 58 -11 105 -15 105
-5 0 -14 2 -22 5 -8 3 -37 -36 -80 -109z"/>
<path d="M1752 671 c-11 -7 -10 -18 3 -64 19 -66 14 -90 -20 -105 -16 -7 -23
-17 -19 -27 9 -22 22 -19 49 11 19 21 25 23 25 10 0 -9 7 -16 15 -16 20 0 19
7 -7 104 -24 91 -28 98 -46 87z"/>
<path d="M1524 625 c-4 -9 -2 -21 4 -27 15 -15 44 -1 40 19 -4 23 -36 29 -44
8z"/>
</g>
</svg>
